# xmcd
#
# Track frame offsets: 
#        150
#        12501
#        31661
#        44881
#        60918
#        70926
#        83021
#        99764
#        112752
#        127693
#
# Disc length: 1977 seconds
#
# Revision: 0
# Processed by: cddbd v1.5.2PL0 Copyright (c) Steve Scherf et al.
# Submitted via: ExactAudioCopy v0.99pb4
#
DISCID=6c07b70a
DTITLE=Worth the Weight - RPG
DYEAR=2008
DGENRE=Southern Rock
TTITLE0=Right On
TTITLE1=Never Fails
TTITLE2=True White Star
TTITLE3=(She Thinks) She's Tough
TTITLE4=By Design
TTITLE5=(This Song Used to Be Called) Something Else
TTITLE6=Alcohol
TTITLE7=Joanne and Joshua
TTITLE8=The Probably Nots
TTITLE9=American Asshole
EXTD=
EXTT0=
EXTT1=
EXTT2=
EXTT3=
EXTT4=
EXTT5=
EXTT6=
EXTT7=
EXTT8=
EXTT9=
PLAYORDER=
